<?xml version="1.0" encoding="UTF-8" standalone="no"?>
<!DOCTYPE svg PUBLIC "-//W3C//DTD SVG 1.1//EN" "http://www.w3.org/Graphics/SVG/1.1/DTD/svg11.dtd">
<!-- Generated by Microsoft Visio, SVG Export react-render.svg Page-1 -->
<svg xmlns="http://www.w3.org/2000/svg" xmlns:xlink="http://www.w3.org/1999/xlink" xmlns:ev="http://www.w3.org/2001/xml-events"
		width="9.05152in" height="3.90179in" viewBox="0 0 651.709 280.929" xml:space="preserve" color-interpolation-filters="sRGB"
		class="st11">
	<style type="text/css">
	<![CDATA[
		.st1 {visibility:visible}
		.st2 {fill:#5b9bd5;fill-opacity:0.22;filter:url(#filter_2);stroke:#5b9bd5;stroke-opacity:0.22}
		.st3 {fill:#5b9bd5;stroke:#c7c8c8;stroke-width:0.25}
		.st4 {fill:#feffff;font-family:Calibri;font-size:1.33333em}
		.st5 {fill:#ed7d31;fill-opacity:0.25;filter:url(#filter_2);stroke:#ed7d31;stroke-opacity:0.25}
		.st6 {fill:url(#grad0-13);stroke:#000000;stroke-width:0.75}
		.st7 {fill:#feffff;font-family:Calibri;font-size:0.833336em}
		.st8 {fill:#5b9bd5;fill-opacity:0.25;filter:url(#filter_2);stroke:#5b9bd5;stroke-opacity:0.25}
		.st9 {fill:#4f87bb;stroke:#40709c;stroke-width:0.75}
		.st10 {fill:#feffff;font-family:Calibri;font-size:1.00001em;font-weight:bold}
		.st11 {fill:none;fill-rule:evenodd;font-size:12px;overflow:visible;stroke-linecap:square;stroke-miterlimit:3}
	]]>
	</style>

	<defs id="Patterns_And_Gradients">
		<linearGradient id="grad0-13" x1="0" y1="0" x2="1" y2="0" gradientTransform="rotate(250 0.5 0.5)">
			<stop offset="0" stop-color="#d06d29" stop-opacity="1"/>
			<stop offset="0.48" stop-color="#d06d29" stop-opacity="1"/>
			<stop offset="0.82" stop-color="#ed7d31" stop-opacity="1"/>
		</linearGradient>
	</defs>
	<defs id="Filters">
		<filter id="filter_2">
			<feGaussianBlur stdDeviation="2"/>
		</filter>
	</defs>
	<g>
		<title>Page-1</title>
		<g id="shape1-1" transform="translate(186.899,-5.18709)">
			<title>Rectangle</title>
			<desc>Virtual DOM</desc>
			<g id="shadow1-2" transform="matrix(1,0,0,1,0.345598,1.97279)" class="st1">
				<rect x="0" y="6.42857" width="166.5" height="274.5" class="st2"/>
			</g>
			<rect x="0" y="6.42857" width="166.5" height="274.5" class="st3"/>
			<text x="4" y="24.83" class="st4">Virtual DOM</text>		</g>
		<g id="shape4-7" transform="translate(200.399,-23.1871)">
			<title>Rectangle.4</title>
			<desc>Element</desc>
			<g id="shadow4-8" transform="matrix(1,0,0,1,0.345598,1.97279)" class="st1">
				<rect x="0" y="60.4286" width="135" height="220.5" class="st5"/>
			</g>
			<rect x="0" y="60.4286" width="135" height="220.5" class="st6"/>
			<text x="4" y="73.43" class="st7">Element</text>		</g>
		<g id="shape5-15" transform="translate(214.529,-133.437)">
			<title>Rectangle.5</title>
			<desc>Element</desc>
			<g id="shadow5-16" transform="matrix(1,0,0,1,0.345598,1.97279)" class="st1">
				<rect x="0" y="196.419" width="102.87" height="84.51" class="st5"/>
			</g>
			<rect x="0" y="196.419" width="102.87" height="84.51" class="st6"/>
			<text x="4" y="209.42" class="st7">Element</text>		</g>
		<g id="shape6-22" transform="translate(238.289,-175.692)">
			<title>Rectangle.6</title>
			<desc>Element</desc>
			<g id="shadow6-23" transform="matrix(1,0,0,1,0.345598,1.97279)" class="st1">
				<rect x="0" y="262.434" width="65.61" height="18.495" class="st5"/>
			</g>
			<rect x="0" y="262.434" width="65.61" height="18.495" class="st6"/>
			<text x="4" y="275.43" class="st7">Element</text>		</g>
		<g id="shape7-29" transform="translate(237.344,-148.692)">
			<title>Rectangle.7</title>
			<desc>Element</desc>
			<g id="shadow7-30" transform="matrix(1,0,0,1,0.345598,1.97279)" class="st1">
				<rect x="0" y="262.434" width="65.61" height="18.495" class="st5"/>
			</g>
			<rect x="0" y="262.434" width="65.61" height="18.495" class="st6"/>
			<text x="4" y="275.43" class="st7">Element</text>		</g>
		<g id="shape8-36" transform="translate(216.464,-37.6771)">
			<title>Rectangle.8</title>
			<desc>Element</desc>
			<g id="shadow8-37" transform="matrix(1,0,0,1,0.345598,1.97279)" class="st1">
				<rect x="0" y="196.419" width="102.87" height="84.51" class="st5"/>
			</g>
			<rect x="0" y="196.419" width="102.87" height="84.51" class="st6"/>
			<text x="4" y="209.42" class="st7">Element</text>		</g>
		<g id="shape9-43" transform="translate(235.094,-50.1871)">
			<title>Rectangle.9</title>
			<desc>Element</desc>
			<g id="shadow9-44" transform="matrix(1,0,0,1,0.345598,1.97279)" class="st1">
				<rect x="0" y="230.934" width="65.61" height="49.995" class="st5"/>
			</g>
			<rect x="0" y="230.934" width="65.61" height="49.995" class="st6"/>
			<text x="4" y="243.93" class="st7">Element</text>		</g>
		<g id="shape10-50" transform="translate(173.399,412.67) rotate(180)">
			<title>Simple Arrow</title>
			<desc>Render</desc>
			<g id="shadow10-51" transform="matrix(1,0,0,1,-0.345598,-1.97279)" class="st1">
				<path d="M0 280.93 L12 268.93 L12 274.93 L54 274.93 L54 280.93 L54 286.93 L12 286.93 L12 292.92 L0 280.93 Z"
						class="st8"/>
			</g>
			<path d="M0 280.93 L12 268.93 L12 274.93 L54 274.93 L54 280.93 L54 286.93 L12 286.93 L12 292.92 L0 280.93 Z"
					class="st9"/>
			<text x="-44.99" y="-277.33" transform="rotate(180)" class="st10">Render</text>		</g>
		<g id="shape11-56" transform="translate(462.203,418.406) rotate(-179.246)">
			<title>Simple Arrow.11</title>
			<desc>Reconciliation</desc>
			<g id="shadow11-57" transform="matrix(1,0,0,1,-0.371524,-1.96807)" class="st1">
				<path d="M0 280.93 L12 268.93 L12 274.93 L95.77 274.93 L95.77 280.93 L95.77 286.93 L12 286.93 L12 292.92 L0 280.93
							 Z" class="st8"/>
			</g>
			<path d="M0 280.93 L12 268.93 L12 274.93 L95.77 274.93 L95.77 280.93 L95.77 286.93 L12 286.93 L12 292.92 L0 280.93 Z"
					class="st9"/>
			<text x="-83.13" y="-277.33" transform="rotate(180)" class="st10">Reconciliation</text>		</g>
		<g id="shape12-62" transform="translate(3.0294,-113.899)">
			<title>Rectangle.12</title>
			<desc>Component</desc>
			<g id="shadow12-63" transform="matrix(1,0,0,1,0.345598,1.97279)" class="st1">
				<rect x="0" y="218.641" width="102.87" height="62.2878" class="st5"/>
			</g>
			<rect x="0" y="218.641" width="102.87" height="62.2878" class="st6"/>
			<text x="13.07" y="254.59" class="st4">Component</text>		</g>
		<g id="shape13-69" transform="translate(481.649,-5.18709)">
			<title>Rectangle.13</title>
			<desc>DOM</desc>
			<g id="shadow13-70" transform="matrix(1,0,0,1,0.345598,1.97279)" class="st1">
				<rect x="0" y="6.42857" width="166.5" height="274.5" class="st2"/>
			</g>
			<rect x="0" y="6.42857" width="166.5" height="274.5" class="st3"/>
			<text x="4" y="24.83" class="st4">DOM</text>		</g>
		<g id="shape14-75" transform="translate(495.149,-23.1871)">
			<title>Rectangle.14</title>
			<desc>Element</desc>
			<g id="shadow14-76" transform="matrix(1,0,0,1,0.345598,1.97279)" class="st1">
				<rect x="0" y="60.4286" width="135" height="220.5" class="st5"/>
			</g>
			<rect x="0" y="60.4286" width="135" height="220.5" class="st6"/>
			<text x="4" y="73.43" class="st7">Element</text>		</g>
		<g id="shape15-82" transform="translate(509.279,-133.437)">
			<title>Rectangle.15</title>
			<desc>Element</desc>
			<g id="shadow15-83" transform="matrix(1,0,0,1,0.345598,1.97279)" class="st1">
				<rect x="0" y="196.419" width="102.87" height="84.51" class="st5"/>
			</g>
			<rect x="0" y="196.419" width="102.87" height="84.51" class="st6"/>
			<text x="4" y="209.42" class="st7">Element</text>		</g>
		<g id="shape16-89" transform="translate(533.039,-175.692)">
			<title>Rectangle.16</title>
			<desc>Element</desc>
			<g id="shadow16-90" transform="matrix(1,0,0,1,0.345598,1.97279)" class="st1">
				<rect x="0" y="262.434" width="65.61" height="18.495" class="st5"/>
			</g>
			<rect x="0" y="262.434" width="65.61" height="18.495" class="st6"/>
			<text x="4" y="275.43" class="st7">Element</text>		</g>
		<g id="shape17-96" transform="translate(532.094,-148.692)">
			<title>Rectangle.17</title>
			<desc>Element</desc>
			<g id="shadow17-97" transform="matrix(1,0,0,1,0.345598,1.97279)" class="st1">
				<rect x="0" y="262.434" width="65.61" height="18.495" class="st5"/>
			</g>
			<rect x="0" y="262.434" width="65.61" height="18.495" class="st6"/>
			<text x="4" y="275.43" class="st7">Element</text>		</g>
		<g id="shape18-103" transform="translate(511.214,-37.6771)">
			<title>Rectangle.18</title>
			<desc>Element</desc>
			<g id="shadow18-104" transform="matrix(1,0,0,1,0.345598,1.97279)" class="st1">
				<rect x="0" y="196.419" width="102.87" height="84.51" class="st5"/>
			</g>
			<rect x="0" y="196.419" width="102.87" height="84.51" class="st6"/>
			<text x="4" y="209.42" class="st7">Element</text>		</g>
		<g id="shape19-110" transform="translate(529.844,-50.1871)">
			<title>Rectangle.19</title>
			<desc>Element</desc>
			<g id="shadow19-111" transform="matrix(1,0,0,1,0.345598,1.97279)" class="st1">
				<rect x="0" y="230.934" width="65.61" height="49.995" class="st5"/>
			</g>
			<rect x="0" y="230.934" width="65.61" height="49.995" class="st6"/>
			<text x="4" y="243.93" class="st7">Element</text>		</g>
	</g>
</svg>
