<?xml version="1.0" encoding="UTF-8" standalone="no"?>
<!DOCTYPE svg PUBLIC "-//W3C//DTD SVG 1.1//EN" "http://www.w3.org/Graphics/SVG/1.1/DTD/svg11.dtd">
<!-- Generated by Microsoft Visio, SVG Export redux-flow.svg Page-2 -->
<svg xmlns="http://www.w3.org/2000/svg" xmlns:xlink="http://www.w3.org/1999/xlink" xmlns:ev="http://www.w3.org/2001/xml-events"
		width="11in" height="8.5in" viewBox="0 0 792 612" xml:space="preserve" color-interpolation-filters="sRGB" class="st10">
	<style type="text/css">
	<![CDATA[
		.st1 {visibility:visible}
		.st2 {fill:#5b9bd5;fill-opacity:0.22;filter:url(#filter_2);stroke:#5b9bd5;stroke-opacity:0.22}
		.st3 {fill:#5b9bd5;stroke:#c7c8c8;stroke-width:0.25}
		.st4 {fill:#70ad47;fill-opacity:0.25;filter:url(#filter_2);stroke:#70ad47;stroke-opacity:0.25}
		.st5 {fill:url(#grad0-12);stroke:#507e31;stroke-width:0.75}
		.st6 {fill:#feffff;font-family:Calibri;font-size:1.16666em}
		.st7 {font-size:1em}
		.st8 {fill:#41719c;fill-opacity:0.25;filter:url(#filter_2);stroke:#41719c;stroke-opacity:0.25}
		.st9 {fill:url(#grad0-61);stroke:#2d5171;stroke-width:0.75}
		.st10 {fill:none;fill-rule:evenodd;font-size:12px;overflow:visible;stroke-linecap:square;stroke-miterlimit:3}
	]]>
	</style>

	<defs id="Patterns_And_Gradients">
		<linearGradient id="grad0-12" x1="0" y1="0" x2="1" y2="0" gradientTransform="rotate(250 0.5 0.5)">
			<stop offset="0" stop-color="#61973d" stop-opacity="1"/>
			<stop offset="0.48" stop-color="#61973d" stop-opacity="1"/>
			<stop offset="0.82" stop-color="#70ad47" stop-opacity="1"/>
		</linearGradient>
		<linearGradient id="grad0-61" x1="0" y1="0" x2="1" y2="0" gradientTransform="rotate(250 0.5 0.5)">
			<stop offset="0" stop-color="#386288" stop-opacity="1"/>
			<stop offset="0.48" stop-color="#386288" stop-opacity="1"/>
			<stop offset="0.82" stop-color="#41719c" stop-opacity="1"/>
		</linearGradient>
	</defs>
	<defs id="Filters">
		<filter id="filter_2">
			<feGaussianBlur stdDeviation="2"/>
		</filter>
	</defs>
	<g>
		<title>Page-2</title>
		<g id="shape1-1" transform="translate(192.375,-103.5)">
			<title>Circle</title>
			<g id="shadow1-2" transform="matrix(1,0,0,1,0.345598,1.97279)" class="st1">
				<path d="M0 409.5 A202.5 202.5 0 0 1 405 409.5 A202.5 202.5 0 1 1 0 409.5 Z" class="st2"/>
			</g>
			<path d="M0 409.5 A202.5 202.5 0 0 1 405 409.5 A202.5 202.5 0 1 1 0 409.5 Z" class="st3"/>
		</g>
		<g id="shape2-6" transform="translate(502.875,-207)">
			<title>Rectangle</title>
			<desc>User Interacts With Application</desc>
			<g id="shadow2-7" transform="matrix(1,0,0,1,0.345598,1.97279)" class="st1">
				<rect x="0" y="567" width="166.5" height="45" class="st4"/>
			</g>
			<rect x="0" y="567" width="166.5" height="45" class="st5"/>
			<text x="43.41" y="585.3" class="st6">User Interacts <tspan x="35.56" dy="1.2em" class="st7">With Application</tspan></text>		</g>
		<g id="shape3-15" transform="translate(311.625,-85.5)">
			<title>Rectangle.3</title>
			<desc>Component Creates Action</desc>
			<g id="shadow3-16" transform="matrix(1,0,0,1,0.345598,1.97279)" class="st1">
				<rect x="0" y="567" width="166.5" height="45" class="st4"/>
			</g>
			<rect x="0" y="567" width="166.5" height="45" class="st5"/>
			<text x="26.53" y="585.3" class="st6">Component Creates <tspan x="64.92" dy="1.2em" class="st7">Action</tspan></text>		</g>
		<g id="shape4-23" transform="translate(130.5,-207)">
			<title>Rectangle.4</title>
			<desc>Action is Dispatched To Application Store</desc>
			<g id="shadow4-24" transform="matrix(1,0,0,1,0.345598,1.97279)" class="st1">
				<rect x="0" y="567" width="166.5" height="45" class="st4"/>
			</g>
			<rect x="0" y="567" width="166.5" height="45" class="st5"/>
			<text x="25.59" y="585.3" class="st6">Action is Dispatched <tspan x="25.56" dy="1.2em" class="st7">To Application Store</tspan></text>		</g>
		<g id="shape5-31" transform="translate(136.125,-373.5)">
			<title>Rectangle.5</title>
			<desc>Reducers Create New Application State</desc>
			<g id="shadow5-32" transform="matrix(1,0,0,1,0.345598,1.97279)" class="st1">
				<rect x="0" y="567" width="166.5" height="45" class="st4"/>
			</g>
			<rect x="0" y="567" width="166.5" height="45" class="st5"/>
			<text x="36.57" y="585.3" class="st6">Reducers Create <tspan x="20.09" dy="1.2em" class="st7">New Application State</tspan></text>		</g>
		<g id="shape6-39" transform="translate(298.125,-477)">
			<title>Rectangle.6</title>
			<desc>New Application State Is Passed to Subscribers</desc>
			<g id="shadow6-40" transform="matrix(1,0,0,1,0.345598,1.97279)" class="st1">
				<rect x="0" y="567" width="166.5" height="45" class="st4"/>
			</g>
			<rect x="0" y="567" width="166.5" height="45" class="st5"/>
			<text x="20.09" y="585.3" class="st6">New Application State <tspan x="15.7" dy="1.2em" class="st7">Is Passed to Subscribers</tspan></text>		</g>
		<g id="shape7-47" transform="translate(507.375,-369)">
			<title>Rectangle.7</title>
			<desc>Components Update Their Views</desc>
			<g id="shadow7-48" transform="matrix(1,0,0,1,0.345598,1.97279)" class="st1">
				<rect x="0" y="567" width="166.5" height="45" class="st4"/>
			</g>
			<rect x="0" y="567" width="166.5" height="45" class="st5"/>
			<text x="24.33" y="585.3" class="st6">Components Update <tspan x="50.25" dy="1.2em" class="st7">Their Views</tspan></text>		</g>
		<g id="shape8-55" transform="translate(-82.711,416.363) rotate(-90)">
			<title>Circular Arrow</title>
			<g id="shadow8-56" transform="matrix(1,0,0,1,-1.97279,0.345598)" class="st1">
				<path d="M170.44 555.19 L227.25 498.37 L215.89 498.37 A102.263 102.263 -180 0 0 11.36 498.37 L55.2 498.37 A58.4275
							 58.4275 0 0 1 172.05 498.37 L160.69 498.37 L170.44 555.19 Z" class="st8"/>
			</g>
			<path d="M170.44 555.19 L227.25 498.37 L215.89 498.37 A102.263 102.263 -180 0 0 11.36 498.37 L55.2 498.37 A58.4275 58.4275
						 0 0 1 172.05 498.37 L160.69 498.37 L170.44 555.19 Z" class="st9"/>
		</g>
	</g>
</svg>
